{
	"asset":{
		"generator":"Khronos glTF Blender I/O v3.5.30",
		"version":"2.0"
	},
	"scene":0,
	"scenes":[
		{
			"name":"Scene",
			"nodes":[
				2
			]
		}
	],
	"nodes":[
		{
			"mesh":0,
			"name":"Object_3"
		},
		{
			"children":[
				0
			],
			"name":"e84fc9db76d34dd4b46bd4c1834136df.obj.cleaner.materialmerger.gle"
		},
		{
			"children":[
				1
			],
			"name":"Sketchfab_model",
			"rotation":[
				-0.70710688829422,
				0,
				0,
				0.7071066498756409
			]
		}
	],
	"materials":[
		{
			"doubleSided":true,
			"name":"Material__218",
			"normalTexture":{
				"index":0
			},
			"pbrMetallicRoughness":{
				"baseColorTexture":{
					"index":1
				},
				"metallicRoughnessTexture":{
					"index":2
				}
			}
		}
	],
	"meshes":[
		{
			"name":"Object_1",
			"primitives":[
				{
					"attributes":{
						"POSITION":0,
						"TEXCOORD_0":1,
						"NORMAL":2
					},
					"indices":3,
					"material":0
				}
			]
		}
	],
	"textures":[
		{
			"sampler":0,
			"source":0
		},
		{
			"sampler":0,
			"source":1
		},
		{
			"sampler":0,
			"source":2
		}
	],
	"images":[
		{
			"mimeType":"image/png",
			"name":"Material__218_normal",
			"uri":"Material__218_normal.png"
		},
		{
			"mimeType":"image/png",
			"name":"Material__218_baseColor",
			"uri":"Material__218_baseColor.png"
		},
		{
			"mimeType":"image/png",
			"name":"Material__218_metallicRoughness",
			"uri":"Material__218_metallicRoughness.png"
		}
	],
	"accessors":[
		{
			"bufferView":0,
			"componentType":5126,
			"count":8134,
			"max":[
				26.997859954833984,
				41.09406661987305,
				17.796356201171875
			],
			"min":[
				-26.994037628173828,
				-25.605030059814453,
				-6.424850940704346
			],
			"type":"VEC3"
		},
		{
			"bufferView":1,
			"componentType":5126,
			"count":8134,
			"type":"VEC2"
		},
		{
			"bufferView":2,
			"componentType":5126,
			"count":8134,
			"type":"VEC3"
		},
		{
			"bufferView":3,
			"componentType":5123,
			"count":14532,
			"type":"SCALAR"
		}
	],
	"bufferViews":[
		{
			"buffer":0,
			"byteLength":97608,
			"byteOffset":0,
			"target":34962
		},
		{
			"buffer":0,
			"byteLength":65072,
			"byteOffset":97608,
			"target":34962
		},
		{
			"buffer":0,
			"byteLength":97608,
			"byteOffset":162680,
			"target":34962
		},
		{
			"buffer":0,
			"byteLength":29064,
			"byteOffset":260288,
			"target":34963
		}
	],
	"samplers":[
		{
			"magFilter":9729,
			"minFilter":9987
		}
	],
	"buffers":[
		{
			"byteLength":289352,
			"uri":"Exterior.bin"
		}
	]
}
